<svg
  width="200"
  height="200"
  viewBox="0 0 100 100"
  xmlns="http://www.w3.org/2000/svg">
  <circle cx="50" cy="50" r="48" fill="#fff" stroke="none" />
  <path
    d="M 84.6 30 A 40 40 0 1 0 84.6 70"
    fill="none"
    stroke="#503"
    stroke-width="8"
    stroke-linecap="round"/>
  <path
    d="M 28 68 c 4 -3, 6 3, 11 0 s 6 3, 11 0 s 6 3, 11 0 s 6 3, 11 0 L 72 68"
    fill="none"
    stroke="#c00"
    stroke-width="3"
    stroke-linecap="round"
    transform="rotate(90 50 50) translate(0 -5.7)" />
  <path
    d="M 28 68 c 4 -3, 6 3, 11 0 s 6 3, 11 0 s 6 3, 11 0 s 6 3, 11 0 L 72 68"
    fill="none"
    stroke="#0b0"
    stroke-width="3"
    stroke-linecap="round"
    transform="rotate(210 50 50) translate(0 -5.7)" />
  <path
    d="M 28 68 c 4 -3, 6 3, 11 0 s 6 3, 11 0 s 6 3, 11 0 s 6 3, 11 0 L 72 68"
    fill="none"
    stroke="#00d"
    stroke-width="3"
    stroke-linecap="round"
    transform="rotate(330 50 50) translate(0 -5.7)" />
  <circle
    cx="75"
    cy="50"
    r="7"
    fill="#d00"/>
  <circle
    cx="75"
    cy="50"
    r="7"
    fill="#0c0"
    transform="rotate(120 50 50)" />
  <circle
    cx="75"
    cy="50"
    r="7"
    fill="#00e"
    transform="rotate(240 50 50)" />
</svg>
